<svg xmlns="http://www.w3.org/2000/svg" xmlns:xlink="http://www.w3.org/1999/xlink" width="500" zoomAndPan="magnify" viewBox="0 0 375 374.999991" height="500" preserveAspectRatio="xMidYMid meet" version="1.0"><defs><clipPath id="id1"><path d="M 111 153 L 256 153 L 256 370.0625 L 111 370.0625 Z M 111 153 " clip-rule="nonzero"/></clipPath><clipPath id="id2"><path d="M 176 4.8125 L 252 4.8125 L 252 273 L 176 273 Z M 176 4.8125 " clip-rule="nonzero"/></clipPath></defs><rect x="-37.5" width="450" fill="#ffffff" y="-37.499999" height="449.999989" fill-opacity="1"/><rect x="-37.5" width="450" fill="#ffffff" y="-37.499999" height="449.999989" fill-opacity="1"/><rect x="-37.5" width="450" fill="#ffffff" y="-37.499999" height="449.999989" fill-opacity="1"/><g clip-path="url(#id1)"><path fill="#003300" d="M 140.035156 153.886719 C 130.988281 219.0625 181.378906 244.363281 229.335938 280.488281 C 277.285156 316.609375 244.683594 370.054688 244.683594 370.054688 C 263.324219 309.519531 202.097656 307.546875 139.574219 258.980469 C 77.054688 210.417969 140.035156 153.886719 140.035156 153.886719 " fill-opacity="1" fill-rule="nonzero"/></g><path fill="#1b5e1f" d="M 138.109375 39.503906 C 138.109375 39.503906 231.101562 53.191406 189.953125 159.199219 C 189.953125 159.199219 165.804688 216.082031 217.800781 263.445312 C 217.800781 263.445312 129.578125 210.140625 150.878906 147.140625 C 172.179688 84.136719 162.804688 57.425781 138.109375 39.503906 " fill-opacity="1" fill-rule="nonzero"/><g clip-path="url(#id2)"><path fill="#4c8c49" d="M 233.347656 272.789062 C 233.347656 272.789062 181.257812 221.703125 195.476562 173.785156 C 215.523438 106.207031 222.546875 68.242188 176.074219 4.808594 C 176.074219 4.808594 298.191406 76.363281 231.671875 212.003906 C 231.671875 212.003906 214.210938 248.964844 233.347656 272.789062 " fill-opacity="1" fill-rule="nonzero"/></g></svg>