<svg xmlns="http://www.w3.org/2000/svg" viewBox="0 0 750 500"><g id="freepik--background-simple--inject-32"><path d="M286.18,112.49c97.48-48,197.73-110.75,311-85.07,35.11,8,67.06,27.87,88.66,56.81,57.75,77.39,53.06,195.92,21.68,283a158.37,158.37,0,0,1-15.79,32.55c-31.85,49.15-85.51,51.47-137.28,37.26-43.8-12-82.61-24.4-127.86-12.17-25.06,6.77-49.35,16.08-74.32,23.17-34,9.64-69.05,16.19-104.45,16.86-93.67,1.75-200.67-46-209-150.63a167.16,167.16,0,0,1-.33-20.39c1.88-41.76,15.68-83.58,53.93-105.26,38.46-21.8,84.09-30.41,125.23-45.87C241,134,263.74,123.54,286.18,112.49Z" style="fill:#1FBD28"></path><path d="M286.18,112.49c97.48-48,197.73-110.75,311-85.07,35.11,8,67.06,27.87,88.66,56.81,57.75,77.39,53.06,195.92,21.68,283a158.37,158.37,0,0,1-15.79,32.55c-31.85,49.15-85.51,51.47-137.28,37.26-43.8-12-82.61-24.4-127.86-12.17-25.06,6.77-49.35,16.08-74.32,23.17-34,9.64-69.05,16.19-104.45,16.86-93.67,1.75-200.67-46-209-150.63a167.16,167.16,0,0,1-.33-20.39c1.88-41.76,15.68-83.58,53.93-105.26,38.46-21.8,84.09-30.41,125.23-45.87C241,134,263.74,123.54,286.18,112.49Z" style="fill:#fff;opacity:0.7000000000000001"></path></g><g id="freepik--Floor--inject-32"><path d="M96.53,457.46h-51a.51.51,0,0,1-.5-.5.5.5,0,0,1,.5-.5h51a.5.5,0,0,1,.5.5A.5.5,0,0,1,96.53,457.46Z" style="fill:#263238"></path><path d="M722,457.46H105.62a.5.5,0,0,1-.5-.5.5.5,0,0,1,.5-.5H722a.5.5,0,0,1,.5.5A.5.5,0,0,1,722,457.46Z" style="fill:#263238"></path></g><g id="freepik--Gears--inject-32"><path d="M660.86,234.46h-8.69l-1.09-7.6a27.41,27.41,0,0,1-10-4.18L635,227.27l-6.15-6.15,4.6-6.14a27.55,27.55,0,0,1-4.11-10l-7.58-1.09v-8.69l7.61-1.09a27.23,27.23,0,0,1,4.18-10L628.92,178l6.14-6.15,6.15,4.61a27.26,27.26,0,0,1,10-4.12l1.08-7.57H661l1.08,7.6a27.35,27.35,0,0,1,10,4.18l6.12-4.59,6.14,6.15-4.6,6.14a27.6,27.6,0,0,1,4.12,10l7.57,1.08V204l-7.6,1.08a27.7,27.7,0,0,1-4.18,10l4.59,6.12-6.15,6.15L672,222.77a27.43,27.43,0,0,1-10,4.12Zm-7.83-1h7l1.07-7.43.35-.06a26.48,26.48,0,0,0,10.3-4.23l.29-.2,6,4.52,4.93-4.93-4.5-6,.2-.29a26.46,26.46,0,0,0,4.29-10.27l.07-.35,7.45-1.07v-7L683,195.13l-.06-.36a26.52,26.52,0,0,0-4.23-10.29l-.2-.3,4.51-6-4.92-4.92-6,4.5-.29-.21a26.67,26.67,0,0,0-10.27-4.29l-.36-.06-1.06-7.45h-7l-1.06,7.42-.36.06a26.63,26.63,0,0,0-10.3,4.23l-.29.2-6-4.51-4.92,4.92,4.5,6-.21.3a26.54,26.54,0,0,0-4.29,10.27l-.07.35L622.72,196v7l7.43,1.06.06.35a26.63,26.63,0,0,0,4.23,10.3l.2.29-4.51,6,4.92,4.93,6-4.5.3.2a26.39,26.39,0,0,0,10.27,4.29l.35.07Zm3.56-14.39a19.48,19.48,0,1,1,19.48-19.48A19.5,19.5,0,0,1,656.59,219.07Zm0-38a18.48,18.48,0,1,0,18.48,18.48A18.5,18.5,0,0,0,656.59,181.11Z" style="fill:#263238"></path><path d="M691.26,272.51h-6.47l-.78-5.46a19.56,19.56,0,0,1-7-2.93l-4.4,3.3L668,262.84l3.31-4.41a19.69,19.69,0,0,1-2.89-7l-5.44-.77v-6.47l5.46-.78a19.93,19.93,0,0,1,2.93-7L668.1,232l4.57-4.57,4.41,3.31a19.65,19.65,0,0,1,7-2.89l.78-5.44h6.47l.78,5.46a19.74,19.74,0,0,1,7,2.93l4.39-3.29,4.58,4.57-3.31,4.41a20,20,0,0,1,2.89,7l5.44.78v6.47l-5.46.78a19.76,19.76,0,0,1-2.94,7l3.3,4.39-4.57,4.57-4.41-3.3a20,20,0,0,1-7.05,2.89Zm-5.6-1h4.73l.76-5.28.35-.07a18.86,18.86,0,0,0,7.31-3l.29-.2,4.29,3.21,3.35-3.34-3.21-4.28.21-.29a18.9,18.9,0,0,0,3-7.29l.07-.35,5.31-.76v-4.73l-5.29-.76-.07-.35a18.86,18.86,0,0,0-3-7.31l-.2-.3,3.22-4.29-3.35-3.34L699.2,232l-.3-.2a18.92,18.92,0,0,0-7.29-3.05l-.35-.06-.76-5.31h-4.73l-.76,5.29-.35.06a18.86,18.86,0,0,0-7.31,3l-.3.21-4.28-3.22-3.35,3.35,3.21,4.27-.21.3a18.63,18.63,0,0,0-3,7.29l-.07.35L664,245v4.73l5.29.75.07.36a18.7,18.7,0,0,0,3,7.31l.2.29-3.22,4.29,3.35,3.35,4.27-3.21.3.21a18.84,18.84,0,0,0,7.29,3l.35.07Zm2.42-10a14.07,14.07,0,1,1,14.07-14.07A14.08,14.08,0,0,1,688.08,261.51Zm0-27.14a13.07,13.07,0,1,0,13.07,13.07A13.08,13.08,0,0,0,688.08,234.37Z" style="fill:#263238"></path><path d="M58.94,222.42H50.25l-1.09-7.6a27.58,27.58,0,0,1-10-4.18L33,215.22l-6.15-6.14,4.6-6.15a27.41,27.41,0,0,1-4.11-10l-7.58-1.08v-8.7L27.4,182a27.54,27.54,0,0,1,4.19-10L27,165.91l6.15-6.14,6.14,4.6a27.6,27.6,0,0,1,10-4.12l1.08-7.57h8.7l1.08,7.6a27.7,27.7,0,0,1,10,4.18l6.12-4.59L82.45,166l-4.6,6.15a27.6,27.6,0,0,1,4.12,10l7.57,1.08V192l-7.6,1.09a27.41,27.41,0,0,1-4.18,10l4.59,6.12-6.15,6.15-6.15-4.6a27.44,27.44,0,0,1-10,4.11Zm-7.83-1h7L59.14,214l.35-.06a26.63,26.63,0,0,0,10.3-4.23l.29-.2,6,4.51L81,209.09l-4.5-6,.2-.3A26.39,26.39,0,0,0,81,192.52l.07-.35,7.45-1.06v-7l-7.43-1.07-.06-.35a26.63,26.63,0,0,0-4.23-10.3l-.2-.29,4.51-6-4.92-4.93-6,4.5-.29-.2a26.52,26.52,0,0,0-10.27-4.29l-.36-.07-1.06-7.45h-7l-1.06,7.43-.36.06a26.52,26.52,0,0,0-10.29,4.23l-.3.2-6-4.51L28.32,166l4.5,6-.21.3a26.56,26.56,0,0,0-4.29,10.26l-.07.36L20.8,184v7L28.23,192l.06.36a26.52,26.52,0,0,0,4.23,10.29l.2.3-4.51,6,4.92,4.92,6-4.5.3.21A26.39,26.39,0,0,0,49.7,213.9l.35.07ZM54.67,207a19.47,19.47,0,1,1,13.77-5.7A19.4,19.4,0,0,1,54.67,207Zm0-37.94a18.47,18.47,0,1,0,13.07,5.4A18.41,18.41,0,0,0,54.67,169.08Z" style="fill:#263238"></path><path d="M69.42,156.53H63l-.78-5.46a19.93,19.93,0,0,1-7-2.93l-4.4,3.29-4.57-4.57,3.31-4.41a19.65,19.65,0,0,1-2.89-7l-5.44-.78v-6.47l5.46-.78a19.74,19.74,0,0,1,2.93-7L46.26,116l4.57-4.57,4.41,3.3a20,20,0,0,1,7-2.89l.78-5.43h6.47l.78,5.45a19.84,19.84,0,0,1,7,2.94l4.39-3.3L86.29,116,83,120.46a19.87,19.87,0,0,1,2.89,7l5.43.77v6.47l-5.45.78a19.76,19.76,0,0,1-2.94,7l3.3,4.4-4.58,4.57-4.41-3.31a19.58,19.58,0,0,1-7,2.89Zm-5.6-1h4.73l.75-5.29.36-.06a18.72,18.72,0,0,0,7.31-3l.29-.2,4.29,3.22,3.35-3.35-3.21-4.27.21-.3a18.84,18.84,0,0,0,3-7.29l.07-.35,5.3-.76v-4.73L85,128.38,85,128a18.86,18.86,0,0,0-3-7.31l-.2-.29L85,116.14l-3.34-3.35L77.35,116l-.29-.21a18.9,18.9,0,0,0-7.29-3l-.35-.07-.76-5.3H63.93l-.76,5.28-.35.07a18.86,18.86,0,0,0-7.31,3l-.3.2-4.29-3.21-3.34,3.34,3.2,4.28-.2.29a18.92,18.92,0,0,0-3,7.29l-.06.35-5.31.76v4.73l5.29.76.06.35a18.86,18.86,0,0,0,3,7.31l.21.3-3.22,4.29,3.35,3.34,4.27-3.2.3.2a18.8,18.8,0,0,0,7.29,3l.35.06Zm2.42-10a14.07,14.07,0,1,1,10-4.12A14,14,0,0,1,66.24,145.52Zm0-27.14a13.08,13.08,0,1,0,9.24,3.83h0A13,13,0,0,0,66.24,118.38Z" style="fill:#263238"></path></g><g id="freepik--Plant--inject-32"><path d="M44.87,315.88s-2.34,6.43-7.31,7.3-13.73-8.76-8.18-13.73S42.53,312.37,44.87,315.88Z" style="fill:#1FBD28"></path><path d="M36.9,323.74c-3.25,0-7.24-3.39-8.89-6.78-1.5-3.08-1.12-5.95,1-7.88a6.41,6.41,0,0,1,5.26-1.67c4.42.56,9,5.21,11,8.19a.51.51,0,0,1,.06.45c-.1.27-2.5,6.71-7.69,7.63A4.74,4.74,0,0,1,36.9,323.74Zm-3.48-15.38a5.48,5.48,0,0,0-3.71,1.46c-2.46,2.21-1.56,5.14-.8,6.7,1.77,3.64,5.93,6.63,8.56,6.17,4.11-.72,6.36-5.62,6.83-6.75-1.89-2.74-6.16-7-10.11-7.54A6.74,6.74,0,0,0,33.42,308.36Z" style="fill:#263238"></path><path d="M52.46,284.32s-7.3,17.83-4.38,26.59,21,15.2,26.3,3.8-6.43-27.46-10.81-31S53.92,281.4,52.46,284.32Z" style="fill:#1FBD28"></path><path d="M64.26,321.33l-.93,0c-6.92-.38-14-5-15.72-10.23-3-8.84,4.09-26.2,4.39-26.94l0,0a5.71,5.71,0,0,1,4-2.84,9.42,9.42,0,0,1,7.86,2.09c4.49,3.59,16.33,19.92,10.95,31.57C72.91,319.08,69.18,321.33,64.26,321.33Zm-11.34-36.8c-.26.64-7.16,17.85-4.37,26.22,1.61,4.83,8.41,9.2,14.84,9.56,2.85.15,8-.39,10.53-5.81,5.15-11.15-6.32-26.89-10.67-30.37a8.4,8.4,0,0,0-7-1.89A4.73,4.73,0,0,0,52.92,284.53Z" style="fill:#263238"></path><path d="M95.12,291.92s-12.56,11.4-14,22.79,7,15.49,15.78,14,13.14-23.67,10.51-33.9S95.12,291.92,95.12,291.92Z" style="fill:#1FBD28"></path><path d="M93.5,329.52a13.71,13.71,0,0,1-9.67-3.44c-2.73-2.63-3.85-6.59-3.23-11.43,1.47-11.45,13.67-22.63,14.19-23.1l0,0c.2-.15,4.93-3.69,8.87-2.31,2,.7,3.43,2.56,4.19,5.51,1.9,7.4.2,22-4.85,29.77-1.8,2.77-3.85,4.37-6.07,4.74A20.89,20.89,0,0,1,93.5,329.52Zm1.94-37.21c-.53.48-12.45,11.58-13.85,22.46-.58,4.52.44,8.18,2.94,10.59,2.77,2.67,7.24,3.72,12.26,2.88,1.94-.32,3.76-1.77,5.41-4.29,4.91-7.55,6.56-21.78,4.71-29-.67-2.61-1.87-4.23-3.55-4.82C100,289,95.75,292.08,95.44,292.31Z" style="fill:#263238"></path><path d="M97.46,355s-14,.59-14.61,7.31,6.14,8.18,12.86,2.33S103.3,355.32,97.46,355Z" style="fill:#1FBD28"></path><path d="M87.71,368.83a5.76,5.76,0,0,1-2.67-.6c-2-1-2.93-3.11-2.69-5.94.62-7.07,14.5-7.73,15.09-7.76h0c2.4.12,3.83.79,4.24,2,.64,1.85-1.22,4.64-5.69,8.52C93.2,367.51,90.22,368.83,87.71,368.83Zm9.75-13.3c-.62,0-13.58.76-14.11,6.85-.21,2.39.55,4.15,2.14,5,2.45,1.24,6.33.05,9.89-3,5.33-4.64,5.67-6.66,5.4-7.45C100.44,355.89,98.79,355.6,97.46,355.53Z" style="fill:#263238"></path><path d="M83.29,364.39l-.42-.91c.46-.2,11.17-5.09,16.16-6l.17,1C94.34,359.35,83.4,364.34,83.29,364.39Z" style="fill:#263238"></path><path d="M100.59,399s-10.31-9.53-15.48-5.21-1.48,10.12,7.4,10.77S104.5,403.35,100.59,399Z" style="fill:#1FBD28"></path><path d="M95.69,405.19c-1,0-2-.05-3.21-.13-5.2-.38-9-2.51-10-5.56-.68-2.11.14-4.28,2.32-6.09,5.45-4.55,15.7,4.83,16.14,5.23l0,0c1.6,1.79,2.13,3.27,1.57,4.41C101.84,404.49,99.59,405.19,95.69,405.19Zm-7.27-12a4.51,4.51,0,0,0-3,1c-1.84,1.53-2.56,3.32-2,5,.84,2.62,4.42,4.53,9.13,4.87,7,.51,8.72-.67,9.08-1.42.45-.91-.51-2.29-1.4-3.28C99.86,399,93.35,393.16,88.42,393.16Z" style="fill:#263238"></path><path d="M99.36,402.68c-4-2.84-15.29-7.08-15.4-7.13l.35-.93c.47.17,11.49,4.33,15.62,7.24Z" style="fill:#263238"></path><path d="M46.24,396.2S60.45,383.05,67.58,389s2,13.95-10.2,14.84S40.85,402.19,46.24,396.2Z" style="fill:#1FBD28"></path><path d="M53,404.53c-5.27,0-8.3-.92-9.22-2.8-.73-1.5,0-3.47,2.14-5.87l0,0c.6-.55,14.61-13.37,22-7.2,2.94,2.45,4,5.36,3.14,8.19-1.33,4.13-6.55,7-13.63,7.53C55.78,404.47,54.29,404.53,53,404.53Zm-6.35-8c-1.27,1.42-2.64,3.38-2,4.74.53,1.08,2.88,2.78,12.71,2.06,6.56-.47,11.56-3.16,12.75-6.83.78-2.42-.23-4.95-2.83-7.12C60.65,383.87,47.15,396.05,46.6,396.55Z" style="fill:#263238"></path><path d="M47.83,401.11l-.58-.82c5.69-4,20.85-9.72,21.5-10l.35.93C68.94,391.32,53.41,397.18,47.83,401.11Z" style="fill:#263238"></path><path d="M62.69,369.06s-1.46,7-6.72,9.64-14.61-2.92-9.64-11.4S60.06,365.55,62.69,369.06Z" style="fill:#1FBD28"></path><path d="M53,379.85a9.25,9.25,0,0,1-6.6-2.84c-2.49-2.66-2.69-6.3-.54-10,1.6-2.73,3.72-4.19,6.29-4.34,4.44-.24,9.05,3.58,10.9,6.05a.48.48,0,0,1,.09.4c-.06.3-1.57,7.28-7,10A7.09,7.09,0,0,1,53,379.85Zm-.43-16.15h-.36c-2.22.13-4.07,1.42-5.49,3.85-1.91,3.25-1.76,6.45.41,8.77s6,3.22,8.58,1.92c4.46-2.23,6.1-7.89,6.4-9.08C60.28,366.79,56.26,363.7,52.61,363.7Z" style="fill:#263238"></path><path d="M50.42,347.14s-2.63-5.84-12.86-2-14.32,9.64-7.89,11.68S50.42,347.14,50.42,347.14Z" style="fill:#1FBD28"></path><path d="M31.35,357.52a6,6,0,0,1-1.83-.26c-2.79-.89-3.41-2.36-3.43-3.44-.07-3,4.36-6.61,11.3-9.19,10.54-3.92,13.46,2.24,13.48,2.31a.48.48,0,0,1-.14.59C50.19,348,38.41,357.52,31.35,357.52Zm12.47-13.21a17.56,17.56,0,0,0-6.08,1.26c-7.39,2.74-10.7,6.19-10.65,8.23,0,1.36,1.5,2.12,2.73,2.51,5.58,1.77,17.79-7.59,20-9.29C49.26,346.22,47.62,344.31,43.82,344.31Z" style="fill:#263238"></path><path d="M32.09,353.41l-.64-.77c5.9-5,16.51-6.21,17-6.26l.1,1C48.41,347.39,37.76,348.59,32.09,353.41Z" style="fill:#263238"></path><path d="M79.64,277s1.75,4.09,5.26,3.21,4.38-6.13,9.93-4.67,10.23,7.89,10.23,5S98,270,90.15,270,79.93,273.22,79.64,277Z" style="fill:#1FBD28"></path><path d="M104.62,281.78c-.68,0-1.56-.68-3-1.75-1.81-1.39-4.3-3.29-7-4-3.15-.83-4.63.67-6.18,2.25a7.77,7.77,0,0,1-3.5,2.43c-3.1.77-5.18-2-5.84-3.5a.51.51,0,0,1,0-.24c.38-5,4.09-7.47,11-7.47,8,0,15.41,7.57,15.41,11a1.23,1.23,0,0,1-.54,1.16A.93.93,0,0,1,104.62,281.78ZM93,274.8a8.12,8.12,0,0,1,1.95.27c2.84.75,5.42,2.72,7.3,4.17a12,12,0,0,0,2.28,1.53,1.25,1.25,0,0,0,0-.24c0-2.46-6.48-10-14.41-10-6.34,0-9.61,2.1-10,6.42.29.62,1.83,3.52,4.62,2.82a6.91,6.91,0,0,0,3-2.16C89.1,276.27,90.54,274.8,93,274.8Z" style="fill:#263238"></path><path d="M69.07,363.09a41.11,41.11,0,0,0-1.3-4.22c-5-13.39-16.76-11.33-17.26-11.24l-.19-1c.13,0,13.06-2.33,18.39,11.87A40.12,40.12,0,0,1,70,362.85Z" style="fill:#263238"></path><path d="M102.92,333.61s2.63-5.85,12.86-2.05,14.32,9.65,7.89,11.69S102.92,333.61,102.92,333.61Z" style="fill:#1FBD28"></path><path d="M122,344c-7.06,0-18.85-9.55-19.39-10a.51.51,0,0,1-.14-.6c0-.06,2.94-6.22,13.49-2.31,6.93,2.58,11.37,6.19,11.29,9.2,0,1.08-.64,2.55-3.43,3.44A6.25,6.25,0,0,1,122,344Zm-18.43-10.51c2.16,1.71,14.38,11.07,20,9.29,1.23-.39,2.7-1.14,2.73-2.5,0-2-3.26-5.5-10.64-8.24C107.3,329,104.3,332.35,103.57,333.48Z" style="fill:#263238"></path><path d="M120.39,339.87c-4.76-5.87-15-5.38-15.1-5.38l-.06-1c.44,0,10.86-.53,15.94,5.74Z" style="fill:#263238"></path><path d="M94.42,335.25l-.41-.91a16.48,16.48,0,0,1,9-1.22l-.19,1A15.86,15.86,0,0,0,94.42,335.25Z" style="fill:#263238"></path><path d="M56.77,323.48c-6-6.09-11.92-7.1-12-7.11s-8.82-2.28-12.1.72l-.67-.74c3.67-3.37,12.6-1.06,13-1,.21,0,6.28,1,12.49,7.38Z" style="fill:#263238"></path><rect x="57.6" y="288.29" width="1" height="2.5" transform="matrix(0.98, -0.22, 0.22, 0.98, -61.88, 19.7)" style="fill:#263238"></rect><path d="M73.1,419.94l-1,0c0-.5,1.3-50.47,0-65.54s-7.34-32.89-7.4-33.07l-6.24-27.85,1-.22L65.67,321c0,.13,6.13,18.08,7.43,33.25S73.12,419.44,73.1,419.94Z" style="fill:#263238"></path><rect x="97.8" y="299.86" width="2.66" height="1" transform="translate(-214.94 262.92) rotate(-64.94)" style="fill:#263238"></rect><path d="M76.16,419.88h-1c0-.46.46-46.08,2.19-59.05S86,327.31,86.1,327.1l10.74-23,.91.42L87,327.48c0,.15-7,20.57-8.69,33.47S76.16,419.42,76.16,419.88Z" style="fill:#263238"></path><path d="M78.78,420l-1-.06c1.73-29.36,4.77-55.77,4.81-56l1,.12C83.55,364.26,80.5,390.64,78.78,420Z" style="fill:#263238"></path><path d="M68.74,419.89l-1,0c0-.42.85-41.95-.85-47.49-.59-1.9-1.37-3-2.27-3.31a1.92,1.92,0,0,0-1.61.37l-.11.09-.15,0c-.08,0-7.88,1-10.65,5.41l-.84-.53c2.84-4.55,10.11-5.7,11.23-5.85a2.84,2.84,0,0,1,2.4-.47c1.26.36,2.25,1.7,3,4C69.59,377.77,68.77,418.17,68.74,419.89Z" style="fill:#263238"></path><path d="M70.92,420l-1-.06c0-.4,2.08-41-.17-53.56l1-.17C73,378.86,70.94,419.54,70.92,420Z" style="fill:#263238"></path><path d="M80,419.94c0-2.48-.54-61.05,4.68-74.95a18.84,18.84,0,0,1,6.82-9.24l.56.83a17.9,17.9,0,0,0-6.45,8.76c-5.14,13.72-4.61,74-4.61,74.59Z" style="fill:#263238"></path><path d="M74.85,419.94l-1-.13c1.22-9-1.26-61.31-8.28-81.47a40.92,40.92,0,0,0-7.32-13.22l.77-.65A42,42,0,0,1,66.53,338C73.58,358.29,76.08,410.88,74.85,419.94Z" style="fill:#263238"></path><path d="M76.16,419.88h-1c0-.51.31-51.23.73-76.29l1,0C76.47,368.65,76.16,419.37,76.16,419.88Z" style="fill:#263238"></path><path d="M76.94,340.44l-1,0c.35-20.21.67-34.34,1-42,.75-19.68,1.84-21.52,2.35-21.83.49-1.1,2.84-5.13,11.1-4.59l-.06,1c-8.52-.55-10.12,4-10.19,4.16l-.24.75-.18-.17c-.37,1.08-1.19,5.17-1.78,20.72C77.61,306.11,77.29,320.23,76.94,340.44Z" style="fill:#263238"></path><path d="M65.26,359.57s-7.31-6.51-4.38-9.71,21-5.56,26.29-1.39-6.43,10-10.81,11.32S66.72,360.64,65.26,359.57Z" style="fill:#1FBD28"></path><path d="M70.53,361.08c-2.49,0-4.63-.42-5.57-1.1l0,0c-.21-.19-5.06-4.55-5.24-8.06a3.14,3.14,0,0,1,.82-2.37c3.16-3.48,21.48-5.8,27-1.44A3.31,3.31,0,0,1,89,351.42c-.77,3.93-9.1,7.87-12.45,8.85A21.68,21.68,0,0,1,70.53,361.08Zm-5-1.9c1.32.93,6.33,1.39,10.65.13,3.66-1.07,11.12-4.89,11.75-8.08a2.35,2.35,0,0,0-1.11-2.37c-5-3.93-22.83-1.71-25.61,1.33a2.18,2.18,0,0,0-.56,1.65C60.84,354.83,65.25,358.89,65.57,359.18Z" style="fill:#263238"></path><path d="M72.34,356.18h-1a13.75,13.75,0,0,1,.17-2l1,.16A12.87,12.87,0,0,0,72.34,356.18Z" style="fill:#263238"></path><path d="M73.12,351.62l-1-.29a32.64,32.64,0,0,1,1.91-4.92l.89.45A33.78,33.78,0,0,0,73.12,351.62Z" style="fill:#263238"></path><path d="M65.26,402.16s-7.31-6.51-4.38-9.71,21-5.56,26.29-1.39-6.43,10-10.81,11.32S66.72,403.23,65.26,402.16Z" style="fill:#1FBD28"></path><path d="M70.53,403.67c-2.49,0-4.63-.42-5.57-1.1l0,0c-.21-.19-5.06-4.55-5.24-8.06a3.13,3.13,0,0,1,.82-2.37c3.16-3.48,21.48-5.8,27-1.44A3.31,3.31,0,0,1,89,394c-.77,3.93-9.1,7.87-12.45,8.85A21.68,21.68,0,0,1,70.53,403.67Zm-5-1.9c1.32.93,6.33,1.39,10.65.13,3.66-1.07,11.12-4.89,11.75-8.08a2.35,2.35,0,0,0-1.11-2.37c-5-3.93-22.83-1.71-25.61,1.33a2.18,2.18,0,0,0-.56,1.65C60.84,397.42,65.25,401.48,65.57,401.77Z" style="fill:#263238"></path><path d="M72.34,398.77h-1c0-4.27,2.62-9.55,2.73-9.77l.89.45C74.94,389.5,72.34,394.74,72.34,398.77Z" style="fill:#263238"></path><path d="M70.7,384.15s-5-4.42-3-6.6,14.28-3.77,17.86-.94-4.37,6.82-7.34,7.69S71.69,384.88,70.7,384.15Z" style="fill:#1FBD28"></path><path d="M74.29,385.33a7.49,7.49,0,0,1-3.89-.78l0,0c-.14-.12-3.48-3.13-3.6-5.58a2.26,2.26,0,0,1,.59-1.72c2.18-2.39,14.76-4,18.54-1a2.41,2.41,0,0,1,1,2.43c-.57,2.89-6.56,5.54-8.56,6.13A15.25,15.25,0,0,1,74.29,385.33ZM71,383.76c.86.6,4.25.88,7.09.06,2.45-.72,7.45-3.26,7.86-5.37a1.47,1.47,0,0,0-.7-1.45c-3.33-2.63-15.31-1.15-17.17.89a1.26,1.26,0,0,0-.33,1C67.84,380.57,70.11,383,71,383.76Z" style="fill:#263238"></path><path d="M75.67,381.85h-1c0-2.94,1.79-6.55,1.86-6.71l.9.45A17.58,17.58,0,0,0,75.67,381.85Z" style="fill:#263238"></path><rect x="63.84" y="412.63" width="19.77" height="43.85" style="fill:#263238"></rect><path d="M83.61,457H63.84a.5.5,0,0,1-.5-.5V412.63a.5.5,0,0,1,.5-.5H83.61a.5.5,0,0,1,.5.5v43.85A.5.5,0,0,1,83.61,457Zm-19.27-1H83.11V413.13H64.34Z" style="fill:#263238"></path></g><g id="freepik--Codes--inject-32"><path d="M534.14,94.16l-22-15.52V70.42l22-15.68V63L518.39,74.49l15.75,11.45Z" style="fill:#263238"></path><path d="M540.83,96.93l16.75-62.24h7.15L547.9,96.93Z" style="fill:#263238"></path><path d="M571.41,94.16V85.94l15.83-11.53L571.41,63v-8.3l22.06,15.6v8.22Z" style="fill:#263238"></path><path d="M611.05,142.57l-10.48-7.4v-3.92l10.48-7.48v4l-7.52,5.46,7.52,5.46Z" style="fill:#263238"></path><path d="M620.94,144.18a6.28,6.28,0,0,1-3.94-1,5.17,5.17,0,0,1-1.8-2.95,19.43,19.43,0,0,1-.45-4.43v-4.88a19.31,19.31,0,0,1,.47-4.56,5,5,0,0,1,1.82-2.89,6.34,6.34,0,0,1,3.9-1,7,7,0,0,1,3.57.75,3.88,3.88,0,0,1,1.74,2.23,12.15,12.15,0,0,1,.48,3.69v1.24h-3.56v-1.28a10.58,10.58,0,0,0-.18-2.2,1.92,1.92,0,0,0-.66-1.17,2.66,2.66,0,0,0-2.82.07,2.42,2.42,0,0,0-.68,1.49,19.16,19.16,0,0,0-.16,2.84v6.66a8.51,8.51,0,0,0,.51,3.63,1.91,1.91,0,0,0,1.83.92,2,2,0,0,0,1.45-.46,2.32,2.32,0,0,0,.59-1.3,13.65,13.65,0,0,0,.12-1.91V135.9h3.56v1.47a12,12,0,0,1-.5,3.66,4.18,4.18,0,0,1-1.76,2.35A6.61,6.61,0,0,1,620.94,144.18Z" style="fill:#263238"></path><path d="M636,144.18a6.33,6.33,0,0,1-3.71-1,5.13,5.13,0,0,1-1.92-2.71,13.45,13.45,0,0,1-.57-4.14v-6.16a13.49,13.49,0,0,1,.57-4.14,5.16,5.16,0,0,1,1.92-2.71,6.41,6.41,0,0,1,3.71-1,6.28,6.28,0,0,1,3.68,1,5.19,5.19,0,0,1,1.9,2.71,13.49,13.49,0,0,1,.57,4.14v6.16a13.45,13.45,0,0,1-.57,4.14,5.15,5.15,0,0,1-1.9,2.71A6.21,6.21,0,0,1,636,144.18Zm0-2.89a1.81,1.81,0,0,0,1.59-.66,3.58,3.58,0,0,0,.55-1.74q.09-1.08.09-2.25V130c0-.8,0-1.56-.09-2.27a3.65,3.65,0,0,0-.55-1.74,1.79,1.79,0,0,0-1.59-.68,1.85,1.85,0,0,0-1.62.68,3.55,3.55,0,0,0-.56,1.74c-.07.71-.1,1.47-.1,2.27v6.64c0,.78,0,1.53.1,2.25a3.48,3.48,0,0,0,.56,1.74A1.87,1.87,0,0,0,636,141.29Z" style="fill:#263238"></path><path d="M650.69,144.18a4.48,4.48,0,0,1-4-2q-1.32-2-1.32-6.65v-4.1a23.44,23.44,0,0,1,.4-4.49,6.87,6.87,0,0,1,1.52-3.32,4.19,4.19,0,0,1,3.28-1.24,4.06,4.06,0,0,1,1.94.47,6.79,6.79,0,0,1,1.58,1.18v-9.86H658v29.68H654.1v-1.36a6.58,6.58,0,0,1-1.52,1.2A3.88,3.88,0,0,1,650.69,144.18Zm1-3.08a3.6,3.6,0,0,0,1.17-.2,5.1,5.1,0,0,0,1.25-.6V126.41a6.24,6.24,0,0,0-1.14-.64,3.32,3.32,0,0,0-1.35-.27,1.79,1.79,0,0,0-1.83,1.3,9,9,0,0,0-.48,3.13v6a19.5,19.5,0,0,0,.16,2.66,4,4,0,0,0,.68,1.87A1.81,1.81,0,0,0,651.68,141.1Z" style="fill:#263238"></path><path d="M667.84,144.18a6.54,6.54,0,0,1-3.85-1,5.12,5.12,0,0,1-1.89-2.86,17.45,17.45,0,0,1-.53-4.63v-4.84a17.18,17.18,0,0,1,.55-4.69,5.05,5.05,0,0,1,1.93-2.82,6.6,6.6,0,0,1,3.79-1,5.87,5.87,0,0,1,3.94,1.1,5.43,5.43,0,0,1,1.67,3.17,27.09,27.09,0,0,1,.4,5v1.72h-8.36v4.25a7.45,7.45,0,0,0,.24,2.09,2.16,2.16,0,0,0,.77,1.19,2.28,2.28,0,0,0,1.38.39,1.9,1.9,0,0,0,1.33-.42,2.2,2.2,0,0,0,.63-1.21,9.17,9.17,0,0,0,.16-1.85v-1.29h3.81v.81a8.29,8.29,0,0,1-1.35,5Q671.09,144.18,667.84,144.18Zm-2.35-12.93H670v-1.91a13.68,13.68,0,0,0-.15-2.21,2.36,2.36,0,0,0-.6-1.36,2,2,0,0,0-1.45-.46,2.12,2.12,0,0,0-1.44.44,2.53,2.53,0,0,0-.68,1.49,16.46,16.46,0,0,0-.19,2.87Z" style="fill:#263238"></path><path d="M677.55,142.57v-3.92l7.55-5.5-7.55-5.42v-4l10.52,7.44v3.92Z" style="fill:#263238"></path><path d="M167.37,349.69a8,8,0,0,1-4.89-1.31,6.81,6.81,0,0,1-2.42-3.56,17.18,17.18,0,0,1-.68-5V329.36a18.2,18.2,0,0,1,.68-5.24,6.29,6.29,0,0,1,2.42-3.46,8.38,8.38,0,0,1,4.89-1.23,8.29,8.29,0,0,1,4.42,1,5.84,5.84,0,0,1,2.34,2.93,13.06,13.06,0,0,1,.71,4.59v2.34h-3.92v-2.09a22.74,22.74,0,0,0-.16-2.91,3.16,3.16,0,0,0-.9-2,3.48,3.48,0,0,0-2.45-.7,3.69,3.69,0,0,0-2.57.75,3.65,3.65,0,0,0-1,2.13,18.85,18.85,0,0,0-.24,3.21V340.5a13.21,13.21,0,0,0,.37,3.53,3.05,3.05,0,0,0,1.2,1.85,4.11,4.11,0,0,0,2.28.55,3.29,3.29,0,0,0,2.42-.75,3.61,3.61,0,0,0,.91-2.07,23,23,0,0,0,.18-3.08v-2.2h3.92v2.2a15.81,15.81,0,0,1-.65,4.79,6.09,6.09,0,0,1-2.28,3.22A7.69,7.69,0,0,1,167.37,349.69Z" style="fill:#263238"></path><path d="M182.54,341.6v-6h-5.13v-3h5.13v-6h2.93v6h5.31v3h-5.31v6Z" style="fill:#263238"></path><path d="M197.75,341.6v-6h-5.13v-3h5.13v-6h2.93v6H206v3h-5.31v6Z" style="fill:#263238"></path><path d="M213,341.6v-6h-5.13v-3H213v-6h2.93v6h5.32v3h-5.32v6Z" style="fill:#263238"></path><path d="M236.57,389V359.31h7.37a8.16,8.16,0,0,1,4.27,1,5.6,5.6,0,0,1,2.32,2.8,11.9,11.9,0,0,1,.74,4.43,9.32,9.32,0,0,1-.83,4.07,5.94,5.94,0,0,1-2.44,2.66,7.93,7.93,0,0,1-4,.93h-3.26V389Zm4.14-16.79h1.91a7.89,7.89,0,0,0,2.82-.4,2.61,2.61,0,0,0,1.47-1.41,7.37,7.37,0,0,0,.44-2.84,12.85,12.85,0,0,0-.32-3.26,2.28,2.28,0,0,0-1.3-1.58,8.09,8.09,0,0,0-3.08-.44h-1.94Z" style="fill:#263238"></path><path d="M254.16,389V359.31h4.14v12.82h7.62V359.31h4.14V389h-4.14V375.1H258.3V389Z" style="fill:#263238"></path><path d="M274.72,389V359.31h7.36a8.13,8.13,0,0,1,4.27,1,5.62,5.62,0,0,1,2.33,2.8,12.12,12.12,0,0,1,.73,4.43,9.47,9.47,0,0,1-.82,4.07,6,6,0,0,1-2.44,2.66,8,8,0,0,1-4,.93h-3.26V389Zm4.14-16.79h1.9a7.89,7.89,0,0,0,2.82-.4,2.55,2.55,0,0,0,1.47-1.41,7.37,7.37,0,0,0,.44-2.84,13.42,13.42,0,0,0-.31-3.26,2.3,2.3,0,0,0-1.3-1.58,8.12,8.12,0,0,0-3.08-.44h-1.94Z" style="fill:#263238"></path><path d="M670.07,363.46l-8.49-6v-3.18l8.49-6.06v3.21L664,355.86l6.08,4.43Z" style="fill:#263238"></path><path d="M673.49,364.53v-24h3.17v8.67a9.33,9.33,0,0,1,1.93-1.42,4.81,4.81,0,0,1,2.38-.6,2.14,2.14,0,0,1,1.56.54,3,3,0,0,1,.77,1.34,5.94,5.94,0,0,1,.22,1.63v13.89h-3.17v-13a3.11,3.11,0,0,0-.27-1.43,1.14,1.14,0,0,0-1.1-.5,2.42,2.42,0,0,0-1.17.33,5.53,5.53,0,0,0-1.15.8v13.77Z" style="fill:#263238"></path><path d="M691.36,364.77a5.37,5.37,0,0,1-3.12-.78,4.15,4.15,0,0,1-1.53-2.32,14.35,14.35,0,0,1-.43-3.76V354a13.59,13.59,0,0,1,.45-3.8,4.05,4.05,0,0,1,1.56-2.28,5.28,5.28,0,0,1,3.07-.78,4.73,4.73,0,0,1,3.19.9,4.3,4.3,0,0,1,1.35,2.56,21.2,21.2,0,0,1,.33,4V356h-6.77v3.45a6.51,6.51,0,0,0,.19,1.69,1.73,1.73,0,0,0,.63,1,1.83,1.83,0,0,0,1.11.32,1.55,1.55,0,0,0,1.09-.35,1.79,1.79,0,0,0,.5-1,7.24,7.24,0,0,0,.13-1.49v-1h3.09v.65a6.67,6.67,0,0,1-1.1,4.07A4.35,4.35,0,0,1,691.36,364.77Zm-1.9-10.48h3.65v-1.54A12.82,12.82,0,0,0,693,351a2,2,0,0,0-.5-1.1,1.56,1.56,0,0,0-1.17-.37,1.71,1.71,0,0,0-1.17.36,2,2,0,0,0-.55,1.2,14,14,0,0,0-.15,2.33Z" style="fill:#263238"></path><path d="M702.2,364.77a2.86,2.86,0,0,1-1.78-.58,4,4,0,0,1-1.22-1.48,4.27,4.27,0,0,1-.45-1.92,6.07,6.07,0,0,1,.54-2.7,5.2,5.2,0,0,1,1.47-1.85,9.82,9.82,0,0,1,2.17-1.33c.82-.37,1.68-.74,2.59-1.09V352.6a10.18,10.18,0,0,0-.12-1.72,1.75,1.75,0,0,0-.48-1,1.6,1.6,0,0,0-1.12-.34,1.7,1.7,0,0,0-1,.3,1.62,1.62,0,0,0-.58.84A4.21,4.21,0,0,0,702,352v.86l-3.15-.12a6.24,6.24,0,0,1,1.31-4.2,5,5,0,0,1,3.86-1.36,4.28,4.28,0,0,1,3.62,1.4,6.57,6.57,0,0,1,1.07,4v7.84c0,.53,0,1,0,1.54s.06,1,.11,1.38.1.83.14,1.2h-2.91c-.06-.31-.14-.71-.22-1.2s-.16-.92-.2-1.32a4.7,4.7,0,0,1-1.14,1.89A3.11,3.11,0,0,1,702.2,364.77Zm1.25-2.73a1.63,1.63,0,0,0,.89-.27,4.37,4.37,0,0,0,.74-.61,3,3,0,0,0,.44-.54v-4.87c-.49.27-1,.55-1.39.83a7.1,7.1,0,0,0-1.14.87,3.69,3.69,0,0,0-.78,1,3.46,3.46,0,0,0,.11,3A1.26,1.26,0,0,0,703.45,362Z" style="fill:#263238"></path><path d="M715.74,364.77a3.63,3.63,0,0,1-3.24-1.59c-.71-1.06-1.07-2.85-1.07-5.39v-3.32a18.87,18.87,0,0,1,.33-3.64,5.6,5.6,0,0,1,1.23-2.69,3.39,3.39,0,0,1,2.66-1,3.21,3.21,0,0,1,1.57.39,5.75,5.75,0,0,1,1.28,1v-8h3.18v24H718.5v-1.09a5.54,5.54,0,0,1-1.23,1A3.09,3.09,0,0,1,715.74,364.77Zm.8-2.49a3.08,3.08,0,0,0,1-.17,3.91,3.91,0,0,0,1-.49V350.37a5.48,5.48,0,0,0-.92-.52,2.67,2.67,0,0,0-1.1-.22,1.45,1.45,0,0,0-1.48,1.05,7.37,7.37,0,0,0-.39,2.54v4.84a15.62,15.62,0,0,0,.13,2.15,3.2,3.2,0,0,0,.55,1.52A1.48,1.48,0,0,0,716.54,362.28Z" style="fill:#263238"></path><path d="M725,363.46v-3.17l6.12-4.46L725,351.44v-3.21l8.52,6v3.18Z" style="fill:#263238"></path><path d="M384.85,56.56l-8.49-6V47.38l8.49-6.06v3.21L378.76,49l6.09,4.42Z" style="fill:#263238"></path><path d="M388.44,57.63V33.58h5.23a9.25,9.25,0,0,1,4.23.81,4.72,4.72,0,0,1,2.23,2.45,10.94,10.94,0,0,1,.66,4.07v8.85a12.23,12.23,0,0,1-.66,4.3A5.14,5.14,0,0,1,398,56.72a7.77,7.77,0,0,1-4,.91Zm3.36-2.41h1.9a3.83,3.83,0,0,0,2.61-.71,3.24,3.24,0,0,0,.94-2.08,28.19,28.19,0,0,0,.16-3.3V41.32a15.39,15.39,0,0,0-.24-3,2.53,2.53,0,0,0-1-1.7,4.68,4.68,0,0,0-2.52-.53H391.8Z" style="fill:#263238"></path><path d="M404.27,57.63V33.58h3.3V57.63Z" style="fill:#263238"></path><path d="M415.64,57.63l-5.37-24.05h3.14l3.8,17.72,3.63-17.72h3.06l-5.32,24.05Z" style="fill:#263238"></path><path d="M426.3,56.56V53.38l6.12-4.45-6.12-4.4V41.32l8.52,6v3.18Z" style="fill:#263238"></path></g><g id="freepik--Tab--inject-32"><path d="M83.7,29.24H322a8.52,8.52,0,0,1,8.52,8.52V283.7a0,0,0,0,1,0,0H75.18a0,0,0,0,1,0,0V37.76a8.52,8.52,0,0,1,8.52-8.52Z" style="fill:#263238"></path><path d="M330.5,284.2H75.18a.51.51,0,0,1-.5-.5V37.76a9,9,0,0,1,9-9H322a9,9,0,0,1,9,9V283.7A.51.51,0,0,1,330.5,284.2Zm-254.82-1H330V37.76a8,8,0,0,0-8-8H83.7a8,8,0,0,0-8,8Z" style="fill:#263238"></path><path d="M89.52,23.43H327.79A8.52,8.52,0,0,1,336.31,32V277.88a0,0,0,0,1,0,0H81a0,0,0,0,1,0,0V32A8.52,8.52,0,0,1,89.52,23.43Z" style="fill:#fff"></path><path d="M336.31,278.38H81a.5.5,0,0,1-.5-.5V32a9,9,0,0,1,9-9H327.79a9,9,0,0,1,9,9V277.88A.5.5,0,0,1,336.31,278.38Zm-254.82-1H335.81V32a8,8,0,0,0-8-8H89.52a8,8,0,0,0-8,8Z" style="fill:#263238"></path><path d="M89.52,23.43H327.79A8.52,8.52,0,0,1,336.31,32v15.8a0,0,0,0,1,0,0H81a0,0,0,0,1,0,0V32A8.52,8.52,0,0,1,89.52,23.43Z" style="fill:#1FBD28"></path><path d="M336.31,48.25H81a.5.5,0,0,1-.5-.5V32a9,9,0,0,1,9-9H327.79a9,9,0,0,1,9,9v15.8A.5.5,0,0,1,336.31,48.25Zm-254.82-1H335.81V32a8,8,0,0,0-8-8H89.52a8,8,0,0,0-8,8Z" style="fill:#263238"></path><path d="M295.24,36.37a4,4,0,1,0-4,4A4,4,0,0,0,295.24,36.37Z" style="fill:#fff"></path><path d="M291.28,40.83a4.47,4.47,0,1,1,4.46-4.46A4.46,4.46,0,0,1,291.28,40.83Zm0-7.93a3.47,3.47,0,1,0,3.46,3.47A3.47,3.47,0,0,0,291.28,32.9Z" style="fill:#263238"></path><path d="M307.14,36.37a4,4,0,1,0-4,4A4,4,0,0,0,307.14,36.37Z" style="fill:#fff"></path><path d="M303.17,40.83a4.47,4.47,0,1,1,4.47-4.46A4.46,4.46,0,0,1,303.17,40.83Zm0-7.93a3.47,3.47,0,1,0,3.47,3.47A3.47,3.47,0,0,0,303.17,32.9Z" style="fill:#263238"></path><path d="M319,36.37a4,4,0,1,0-4,4A4,4,0,0,0,319,36.37Z" style="fill:#263238"></path><path d="M315.06,40.83a4.47,4.47,0,1,1,4.47-4.46A4.46,4.46,0,0,1,315.06,40.83Zm0-7.93a3.47,3.47,0,1,0,3.47,3.47A3.47,3.47,0,0,0,315.06,32.9Z" style="fill:#263238"></path><path d="M126,63.79H107.19a1.5,1.5,0,0,1,0-3H126a1.5,1.5,0,0,1,0,3Z" style="fill:#263238"></path><path d="M177.72,74.82H107.19a1.5,1.5,0,0,1,0-3h70.53a1.5,1.5,0,0,1,0,3Z" style="fill:#c4c4c4"></path><path d="M286.81,74.82H216.28a1.5,1.5,0,0,1,0-3h70.53a1.5,1.5,0,0,1,0,3Z" style="fill:#c4c4c4"></path><path d="M210.19,74.82h-27.9a1.5,1.5,0,0,1,0-3h27.9a1.5,1.5,0,0,1,0,3Z" style="fill:#263238"></path><path d="M147.78,85.85H107.19a1.5,1.5,0,0,1,0-3h40.59a1.5,1.5,0,0,1,0,3Z" style="fill:#263238"></path><path d="M193.45,85.85H152.86a1.5,1.5,0,0,1,0-3h40.59a1.5,1.5,0,0,1,0,3Z" style="fill:#263238"></path><path d="M239.11,85.85H198.52a1.5,1.5,0,0,1,0-3h40.59a1.5,1.5,0,0,1,0,3Z" style="fill:#263238"></path><path d="M261.44,85.85H244.19a1.5,1.5,0,0,1,0-3h17.25a1.5,1.5,0,0,1,0,3Z" style="fill:#263238"></path><path d="M149.81,63.79H131a1.5,1.5,0,0,1,0-3h18.77a1.5,1.5,0,0,1,0,3Z" style="fill:#263238"></path><path d="M261.44,63.79H242.67a1.5,1.5,0,0,1,0-3h18.77a1.5,1.5,0,0,1,0,3Z" style="fill:#263238"></path><path d="M236.58,63.79H217.8a1.5,1.5,0,0,1,0-3h18.78a1.5,1.5,0,0,1,0,3Z" style="fill:#c4c4c4"></path><path d="M209.68,63.79H154.89a1.5,1.5,0,0,1,0-3h54.79a1.5,1.5,0,0,1,0,3Z" style="fill:#263238"></path><path d="M126,131.12H107.19a1.5,1.5,0,0,1,0-3H126a1.5,1.5,0,0,1,0,3Z" style="fill:#263238"></path><path d="M177.72,142.15H107.19a1.5,1.5,0,0,1,0-3h70.53a1.5,1.5,0,0,1,0,3Z" style="fill:#c4c4c4"></path><path d="M286.81,142.15H216.28a1.5,1.5,0,0,1,0-3h70.53a1.5,1.5,0,0,1,0,3Z" style="fill:#263238"></path><path d="M210.19,142.15h-27.9a1.5,1.5,0,0,1,0-3h27.9a1.5,1.5,0,0,1,0,3Z" style="fill:#263238"></path><path d="M147.78,153.17H107.19a1.5,1.5,0,0,1,0-3h40.59a1.5,1.5,0,0,1,0,3Z" style="fill:#263238"></path><path d="M193.45,153.17H152.86a1.5,1.5,0,0,1,0-3h40.59a1.5,1.5,0,0,1,0,3Z" style="fill:#263238"></path><path d="M239.11,153.17H198.52a1.5,1.5,0,0,1,0-3h40.59a1.5,1.5,0,0,1,0,3Z" style="fill:#c4c4c4"></path><path d="M261.44,153.17H244.19a1.5,1.5,0,0,1,0-3h17.25a1.5,1.5,0,0,1,0,3Z" style="fill:#263238"></path><path d="M149.81,131.12H131a1.5,1.5,0,1,1,0-3h18.77a1.5,1.5,0,0,1,0,3Z" style="fill:#263238"></path><path d="M261.44,131.12H242.67a1.5,1.5,0,1,1,0-3h18.77a1.5,1.5,0,0,1,0,3Z" style="fill:#263238"></path><path d="M236.58,131.12H217.8a1.5,1.5,0,0,1,0-3h18.78a1.5,1.5,0,1,1,0,3Z" style="fill:#c4c4c4"></path><path d="M209.68,131.12H154.89a1.5,1.5,0,0,1,0-3h54.79a1.5,1.5,0,0,1,0,3Z" style="fill:#263238"></path><path d="M126,230.37H107.19a1.5,1.5,0,0,1,0-3H126a1.5,1.5,0,0,1,0,3Z" style="fill:#263238"></path><path d="M177.72,241.4H107.19a1.5,1.5,0,0,1,0-3h70.53a1.5,1.5,0,0,1,0,3Z" style="fill:#c4c4c4"></path><path d="M286.81,241.4H216.28a1.5,1.5,0,0,1,0-3h70.53a1.5,1.5,0,0,1,0,3Z" style="fill:#263238"></path><path d="M210.19,241.4h-27.9a1.5,1.5,0,0,1,0-3h27.9a1.5,1.5,0,0,1,0,3Z" style="fill:#263238"></path><path d="M147.78,252.42H107.19a1.5,1.5,0,0,1,0-3h40.59a1.5,1.5,0,0,1,0,3Z" style="fill:#263238"></path><path d="M193.45,252.42H152.86a1.5,1.5,0,0,1,0-3h40.59a1.5,1.5,0,0,1,0,3Z" style="fill:#263238"></path><path d="M239.11,252.42H198.52a1.5,1.5,0,0,1,0-3h40.59a1.5,1.5,0,0,1,0,3Z" style="fill:#c4c4c4"></path><path d="M261.44,252.42H244.19a1.5,1.5,0,0,1,0-3h17.25a1.5,1.5,0,0,1,0,3Z" style="fill:#263238"></path><path d="M149.81,230.37H131a1.5,1.5,0,1,1,0-3h18.77a1.5,1.5,0,0,1,0,3Z" style="fill:#263238"></path><path d="M261.44,230.37H242.67a1.5,1.5,0,1,1,0-3h18.77a1.5,1.5,0,0,1,0,3Z" style="fill:#263238"></path><path d="M236.58,230.37H217.8a1.5,1.5,0,0,1,0-3h18.78a1.5,1.5,0,1,1,0,3Z" style="fill:#c4c4c4"></path><path d="M209.68,230.37H154.89a1.5,1.5,0,0,1,0-3h54.79a1.5,1.5,0,0,1,0,3Z" style="fill:#263238"></path><path d="M231.5,97.45H212.73a1.5,1.5,0,0,1,0-3H231.5a1.5,1.5,0,0,1,0,3Z" style="fill:#263238"></path><path d="M206.64,97.45H187.87a1.5,1.5,0,0,1,0-3h18.77a1.5,1.5,0,0,1,0,3Z" style="fill:#263238"></path><path d="M179.75,97.45H125a1.5,1.5,0,0,1,0-3h54.8a1.5,1.5,0,0,1,0,3Z" style="fill:#263238"></path><path d="M231.5,117.19H212.73a1.5,1.5,0,1,1,0-3H231.5a1.5,1.5,0,0,1,0,3Z" style="fill:#263238"></path><path d="M206.64,117.19H187.87a1.5,1.5,0,0,1,0-3h18.77a1.5,1.5,0,0,1,0,3Z" style="fill:#263238"></path><path d="M179.75,117.19H125a1.5,1.5,0,1,1,0-3h54.8a1.5,1.5,0,0,1,0,3Z" style="fill:#c4c4c4"></path><path d="M143.72,107.32H125a1.5,1.5,0,1,1,0-3h18.77a1.5,1.5,0,0,1,0,3Z" style="fill:#263238"></path><path d="M168.59,107.32H149.81a1.5,1.5,0,0,1,0-3h18.78a1.5,1.5,0,0,1,0,3Z" style="fill:#263238"></path><path d="M231.5,107.32H176.7a1.5,1.5,0,0,1,0-3h54.8a1.5,1.5,0,0,1,0,3Z" style="fill:#c4c4c4"></path><path d="M231.5,166.52H212.73a1.5,1.5,0,0,1,0-3H231.5a1.5,1.5,0,0,1,0,3Z" style="fill:#263238"></path><path d="M206.64,166.52H187.87a1.5,1.5,0,0,1,0-3h18.77a1.5,1.5,0,0,1,0,3Z" style="fill:#263238"></path><path d="M179.75,166.52H125a1.5,1.5,0,0,1,0-3h54.8a1.5,1.5,0,0,1,0,3Z" style="fill:#263238"></path><path d="M231.5,186.26H212.73a1.5,1.5,0,0,1,0-3H231.5a1.5,1.5,0,0,1,0,3Z" style="fill:#263238"></path><path d="M206.64,186.26H187.87a1.5,1.5,0,0,1,0-3h18.77a1.5,1.5,0,0,1,0,3Z" style="fill:#263238"></path><path d="M179.75,186.26H125a1.5,1.5,0,1,1,0-3h54.8a1.5,1.5,0,0,1,0,3Z" style="fill:#c4c4c4"></path><path d="M143.72,176.39H125a1.5,1.5,0,1,1,0-3h18.77a1.5,1.5,0,1,1,0,3Z" style="fill:#263238"></path><path d="M168.59,176.39H149.81a1.5,1.5,0,0,1,0-3h18.78a1.5,1.5,0,1,1,0,3Z" style="fill:#263238"></path><path d="M231.5,176.39H176.7a1.5,1.5,0,0,1,0-3h54.8a1.5,1.5,0,0,1,0,3Z" style="fill:#c4c4c4"></path><path d="M143.72,197.87H125a1.5,1.5,0,1,1,0-3h18.77a1.5,1.5,0,1,1,0,3Z" style="fill:#263238"></path><path d="M168.59,197.87H149.81a1.5,1.5,0,0,1,0-3h18.78a1.5,1.5,0,1,1,0,3Z" style="fill:#263238"></path><path d="M231.5,197.87H176.7a1.5,1.5,0,0,1,0-3h54.8a1.5,1.5,0,0,1,0,3Z" style="fill:#c4c4c4"></path><path d="M143.72,217.6H125a1.5,1.5,0,0,1,0-3h18.77a1.5,1.5,0,0,1,0,3Z" style="fill:#263238"></path><path d="M168.59,217.6H149.81a1.5,1.5,0,0,1,0-3h18.78a1.5,1.5,0,0,1,0,3Z" style="fill:#263238"></path><path d="M231.5,217.6H176.7a1.5,1.5,0,0,1,0-3h54.8a1.5,1.5,0,0,1,0,3Z" style="fill:#c4c4c4"></path><path d="M231.5,207.73H212.73a1.5,1.5,0,0,1,0-3H231.5a1.5,1.5,0,0,1,0,3Z" style="fill:#263238"></path><path d="M206.64,207.73H187.87a1.5,1.5,0,0,1,0-3h18.77a1.5,1.5,0,0,1,0,3Z" style="fill:#263238"></path><path d="M179.75,207.73H125a1.5,1.5,0,0,1,0-3h54.8a1.5,1.5,0,0,1,0,3Z" style="fill:#c4c4c4"></path><rect x="94.23" y="58.46" width="5.99" height="6.77" style="fill:#263238"></rect><rect x="94.23" y="69.59" width="5.99" height="6.77" style="fill:#263238"></rect><rect x="94.23" y="80.71" width="5.99" height="6.77" style="fill:#263238"></rect><rect x="94.23" y="91.84" width="5.99" height="6.77" style="fill:#263238"></rect><rect x="94.23" y="102.96" width="5.99" height="6.77" style="fill:#263238"></rect><rect x="94.23" y="114.09" width="5.99" height="6.77" style="fill:#263238"></rect><rect x="94.23" y="125.22" width="5.99" height="6.77" style="fill:#263238"></rect><rect x="94.23" y="136.34" width="5.99" height="6.77" style="fill:#263238"></rect><rect x="94.23" y="147.47" width="5.99" height="6.77" style="fill:#263238"></rect><rect x="94.23" y="158.59" width="5.99" height="6.77" style="fill:#263238"></rect><rect x="94.23" y="169.72" width="5.99" height="6.77" style="fill:#263238"></rect><rect x="94.23" y="180.84" width="5.99" height="6.77" style="fill:#263238"></rect><rect x="94.23" y="191.97" width="5.99" height="6.77" style="fill:#263238"></rect><rect x="94.23" y="203.09" width="5.99" height="6.77" style="fill:#263238"></rect><rect x="94.23" y="214.22" width="5.99" height="6.77" style="fill:#263238"></rect><rect x="94.23" y="225.35" width="5.99" height="6.77" style="fill:#263238"></rect><rect x="94.23" y="236.47" width="5.99" height="6.77" style="fill:#263238"></rect><rect x="94.23" y="247.6" width="5.99" height="6.77" style="fill:#263238"></rect></g><g id="freepik--character-2--inject-32"><path d="M628.57,371.67a21.19,21.19,0,0,1-11.51-4,2.28,2.28,0,1,1,2.73-3.64c.32.23,8,5.78,14.32,1.27,4.69-3.32,5.32-25.67,4.27-40.48a2.28,2.28,0,0,1,4.55-.32c.45,6.38,2.27,38.52-6.19,44.52A13.83,13.83,0,0,1,628.57,371.67Z" style="fill:#263238"></path><rect x="592.89" y="371.26" width="7.58" height="55.75" style="fill:#263238"></rect><path d="M600.47,427.51h-7.58a.5.5,0,0,1-.5-.5V371.26a.5.5,0,0,1,.5-.5h7.58a.5.5,0,0,1,.5.5V427A.5.5,0,0,1,600.47,427.51Zm-7.08-1H600V371.76h-6.58Z" style="fill:#263238"></path><rect x="562.84" y="349.54" width="67.68" height="16.35" rx="3.82" style="fill:#8c8c8c"></rect><path d="M626.7,366.39h-60a4.33,4.33,0,0,1-4.33-4.32v-8.7a4.33,4.33,0,0,1,4.33-4.33h60a4.33,4.33,0,0,1,4.32,4.33v8.7A4.33,4.33,0,0,1,626.7,366.39Zm-60-16.35a3.34,3.34,0,0,0-3.33,3.33v8.7a3.33,3.33,0,0,0,3.33,3.32h60a3.32,3.32,0,0,0,3.32-3.32v-8.7A3.33,3.33,0,0,0,626.7,350Z" style="fill:#263238"></path><path d="M636.49,273.73a32,32,0,0,0-1.48,4.15c-2.86,9.89-3.08,20.58-3.18,30.8-.05,4.07-1.11,10.65.47,14.42,2,4.7,10.83,6.86,13.28,1.56,3.08-6.68,1.22-15.55,2.7-22.75,1.65-8,6.18-17.85,4.2-25.93-1.89-7.7-8.08-13.89-14.11-5.55A18.25,18.25,0,0,0,636.49,273.73Z" style="fill:#8c8c8c"></path><path d="M640.24,328.25h-.16c-3.54-.06-7.08-2.19-8.24-5s-.93-7.25-.69-11.08c.09-1.29.17-2.5.18-3.53.09-9.19.21-20.62,3.2-30.93a32.27,32.27,0,0,1,1.5-4.22h0a20,20,0,0,1,1.93-3.4c2.9-4,5.63-4.43,7.42-4.08,3.3.64,6.29,4.49,7.59,9.81,1.45,5.94-.48,12.62-2.35,19.09-.71,2.49-1.39,4.84-1.85,7.06a51.81,51.81,0,0,0-.7,9.19c-.07,4.72-.16,9.59-2,13.67A6,6,0,0,1,640.24,328.25Zm4.14-61.3c-1.89,0-3.81,1.29-5.61,3.77a17.93,17.93,0,0,0-1.82,3.22h0a30.59,30.59,0,0,0-1.46,4.08c-3,10.19-3.07,21.54-3.16,30.67,0,1.06-.09,2.29-.18,3.58-.24,3.73-.51,8,.61,10.64,1,2.42,4.17,4.29,7.33,4.34a5.07,5.07,0,0,0,5-2.8c1.8-3.89,1.88-8.65,2-13.26a52.36,52.36,0,0,1,.72-9.38c.47-2.26,1.15-4.63,1.87-7.14,1.84-6.34,3.73-12.9,2.34-18.57-1.2-4.86-3.93-8.51-6.82-9.07A4.26,4.26,0,0,0,644.38,267Zm-7.89,6.78h0Z" style="fill:#263238"></path><rect x="582.74" y="366.05" width="27.88" height="7.58" style="fill:#263238"></rect><path d="M610.62,374.13H582.74a.5.5,0,0,1-.5-.5v-7.58a.51.51,0,0,1,.5-.5h27.88a.5.5,0,0,1,.5.5v7.58A.5.5,0,0,1,610.62,374.13Zm-27.38-1h26.88v-6.58H583.24Z" style="fill:#263238"></path><path d="M563.93,453.39a3.57,3.57,0,1,1-3.56-3.57A3.56,3.56,0,0,1,563.93,453.39Z" style="fill:#fff"></path><path d="M560.37,457.46a4.07,4.07,0,1,1,4.06-4.07A4.07,4.07,0,0,1,560.37,457.46Zm0-7.14a3.07,3.07,0,1,0,3.06,3.07A3.07,3.07,0,0,0,560.37,450.32Z" style="fill:#263238"></path><path d="M637.22,453.39a3.57,3.57,0,1,1-3.57-3.57A3.56,3.56,0,0,1,637.22,453.39Z" style="fill:#fff"></path><path d="M633.65,457.46a4.07,4.07,0,1,1,4.07-4.07A4.08,4.08,0,0,1,633.65,457.46Zm0-7.14a3.07,3.07,0,1,0,3.07,3.07A3.08,3.08,0,0,0,633.65,450.32Z" style="fill:#263238"></path><path d="M600.14,453.39a3.57,3.57,0,1,1-3.56-3.57A3.56,3.56,0,0,1,600.14,453.39Z" style="fill:#fff"></path><path d="M596.58,457.46a4.07,4.07,0,1,1,4.06-4.07A4.07,4.07,0,0,1,596.58,457.46Zm0-7.14a3.07,3.07,0,1,0,3.06,3.07A3.07,3.07,0,0,0,596.58,450.32Z" style="fill:#263238"></path><polygon points="599.09 427.01 596.68 427.1 594.28 427.01 555.07 449.17 555.07 452.42 560.37 452.42 560.37 449.6 596.68 436.84 633 449.6 633 452.42 638.3 452.42 638.3 449.17 599.09 427.01" style="fill:#263238"></polygon><path d="M638.3,452.92H633a.5.5,0,0,1-.5-.5V450l-35.82-12.59L560.87,450v2.46a.5.5,0,0,1-.5.5h-5.3a.5.5,0,0,1-.5-.5v-3.25a.5.5,0,0,1,.25-.43L594,426.57a.63.63,0,0,1,.27-.06l2.4.09,2.37-.09a.58.58,0,0,1,.26.06l39.21,22.17a.49.49,0,0,1,.26.43v3.25A.51.51,0,0,1,638.3,452.92Zm-4.8-1h4.3v-2.46L599,427.51l-2.26.09-2.3-.09-38.83,21.95v2.46h4.3V449.6a.51.51,0,0,1,.34-.47l36.31-12.77a.62.62,0,0,1,.33,0l36.31,12.77a.51.51,0,0,1,.34.47Z" style="fill:#263238"></path><polygon points="593.21 426.91 600.15 426.91 599.11 452.42 594.25 452.42 593.21 426.91" style="fill:#263238"></polygon><path d="M599.11,452.92h-4.86a.52.52,0,0,1-.5-.48l-1-25.51a.55.55,0,0,1,.14-.37.51.51,0,0,1,.36-.15h6.94a.48.48,0,0,1,.36.15.47.47,0,0,1,.14.37l-1,25.51A.5.5,0,0,1,599.11,452.92Zm-4.38-1h3.9l1-24.51h-5.9Z" style="fill:#263238"></path><path d="M556.62,195.84s-1,7.61,1.94,11.82,3.72,6.63,3.72,8.58-1.29,5.18,0,6.15,5.19,0,5.19,0,7,7.12,9.39,6.48a15.8,15.8,0,0,0,4.85-2.59s7.29,7.44,8.26,9.55,1.62,3.72,1.62,3.72l10.85-17.16a34,34,0,0,1-10.52-14.25c-3.4-9.07-3.4-21-13.77-23.64S557.75,191.46,556.62,195.84Z" style="fill:#fff"></path><path d="M591.59,240.05h0a.51.51,0,0,1-.42-.31s-.66-1.63-1.61-3.7c-.73-1.58-5.65-6.83-7.85-9.1a15.47,15.47,0,0,1-4.68,2.41c-2.47.66-8.12-4.83-9.68-6.41-1,.22-4,.81-5.33-.15-1.11-.84-.79-2.67-.47-4.44a13.1,13.1,0,0,0,.27-2.11c0-1.42-.41-3.65-3.63-8.3-3-4.32-2.07-11.85-2-12.17,0,0,0,0,0-.06,1.25-4.83,11.77-14.29,22.14-11.69,8.11,2,10.11,9.63,12,17a72.26,72.26,0,0,0,2.07,7,33.75,33.75,0,0,0,10.35,14,.49.49,0,0,1,.13.67L592,239.82A.48.48,0,0,1,591.59,240.05Zm-9.88-14.27a.51.51,0,0,1,.36.15c.3.3,7.36,7.53,8.36,9.69.53,1.15,1,2.17,1.25,2.85l10.09-16a34.34,34.34,0,0,1-10.32-14.19,71.9,71.9,0,0,1-2.11-7.06c-1.94-7.4-3.77-14.39-11.31-16.27-10.29-2.57-19.86,7-20.92,10.94-.06.53-.82,7.57,1.86,11.44s3.81,6.51,3.81,8.87a14.67,14.67,0,0,1-.28,2.29c-.25,1.4-.54,3,.08,3.46.81.6,3.35.27,4.76-.08a.47.47,0,0,1,.48.13c2.62,2.67,7.36,6.75,8.91,6.34a15.64,15.64,0,0,0,4.67-2.49A.45.45,0,0,1,581.71,225.78Z" style="fill:#263238"></path><path d="M570.1,221.76a.51.51,0,0,1-.45-.29.49.49,0,0,1,.24-.66s2.79-1.37,2.79-3.92a.5.5,0,0,1,1,0c0,3.19-3.23,4.75-3.36,4.82A.59.59,0,0,1,570.1,221.76Z" style="fill:#263238"></path><path d="M562,209a.49.49,0,0,1-.5-.47,3.29,3.29,0,0,1,4.3-3.43.48.48,0,0,1,.41.57.49.49,0,0,1-.57.41,2.81,2.81,0,0,0-2.38.44,2.75,2.75,0,0,0-.76,2,.5.5,0,0,1-.48.52Z" style="fill:#263238"></path><path d="M566.21,211.54c.61.94.7,2,.21,2.27s-1.37-.19-2-1.13-.7-2-.21-2.27S565.6,210.6,566.21,211.54Z" style="fill:#263238"></path><polygon points="581.72 226.28 586.08 222.96 586.08 230.31 581.72 226.28" style="fill:#263238"></polygon><path d="M586.08,230.81a.55.55,0,0,1-.34-.13l-4.36-4a.5.5,0,0,1,0-.76l4.37-3.32a.5.5,0,0,1,.8.4v7.35a.51.51,0,0,1-.3.46A.65.65,0,0,1,586.08,230.81Zm-3.59-4.5,3.09,2.86V224Z" style="fill:#263238"></path><path d="M515.86,343.73l-9.45,94.88s-13.39.28-19-.28-10.88-2.79-10.32.28,8.92,8.09,12,9.48,7,2.23,9.49,3.63,7.81,5.3,10,4.74,7.25-20.92,7.25-20.92L541.8,352.1l29-2.23s-43.8-11.72-48.27-12.28S515.86,343.73,515.86,343.73Z" style="fill:#fff"></path><path d="M508.18,457c-2,0-5.15-2-7.73-3.58-.8-.5-1.52-.95-2.1-1.27a30.09,30.09,0,0,0-4.94-2,44.57,44.57,0,0,1-4.51-1.66c-2.52-1.15-11.63-6.31-12.28-9.85a1.75,1.75,0,0,1,.39-1.64c.91-.9,3-.51,5.84,0,1.42.27,3,.58,4.64.74,4.91.49,16.1.33,18.47.29l9.4-94.44a.43.43,0,0,1,0-.11c.1-.29,2.42-7.07,7.23-6.47,4.45.55,46.55,11.81,48.34,12.28a.52.52,0,0,1,.37.53.51.51,0,0,1-.46.46l-28.68,2.2-25.81,83.12c-1.18,4.81-5.27,20.67-7.61,21.26A2.65,2.65,0,0,1,508.18,457Zm-29.42-19.49a1.57,1.57,0,0,0-1.05.25.85.85,0,0,0-.1.75c.49,2.73,8.43,7.63,11.71,9.12,1.36.61,2.9,1.13,4.4,1.63a31.07,31.07,0,0,1,5.12,2c.59.33,1.32.79,2.14,1.3,2.4,1.5,6,3.77,7.54,3.4,1.25-.45,4.49-10.81,6.89-20.56L541.33,352a.51.51,0,0,1,.43-.35l26.09-2c-9.77-2.6-41.64-11-45.36-11.5s-5.93,5.16-6.14,5.75l-9.44,94.82a.51.51,0,0,1-.49.45c-.13,0-13.49.27-19-.28-1.65-.17-3.29-.48-4.73-.75A24.1,24.1,0,0,0,478.76,437.52Zm27.65,1.09h0Z" style="fill:#263238"></path><path d="M501.39,446.42c-9.49-2.23-12.84-5-12.84-5l2.53-2.85c-1.38-.05-2.64-.12-3.64-.22-5.58-.56-10.88-2.79-10.32.28s8.92,8.09,12,9.48,7,2.23,9.49,3.63,7.81,5.3,10,4.74c.93-.23,2.33-3.88,3.66-8.06A94.41,94.41,0,0,1,501.39,446.42Z" style="fill:#1FBD28"></path><path d="M508.18,457c-2,0-5.15-2-7.73-3.58-.8-.5-1.52-.95-2.1-1.27a30.09,30.09,0,0,0-4.94-2,44.57,44.57,0,0,1-4.51-1.66c-2.52-1.15-11.63-6.31-12.28-9.85a1.75,1.75,0,0,1,.39-1.64c.91-.9,3-.51,5.84,0,1.42.27,3,.58,4.64.74.91.09,2.13.17,3.61.22a.51.51,0,0,1,.36.84l-2.16,2.42c1.15.78,4.79,2.88,12.2,4.62h0a94.77,94.77,0,0,0,10.86,2,.49.49,0,0,1,.36.23.48.48,0,0,1,.06.42c-2.25,7.08-3.29,8.22-4,8.4A2.65,2.65,0,0,1,508.18,457Zm-29.42-19.49a1.57,1.57,0,0,0-1.05.25.85.85,0,0,0-.1.75c.49,2.73,8.43,7.63,11.71,9.12,1.36.61,2.9,1.13,4.4,1.63a31.07,31.07,0,0,1,5.12,2c.59.33,1.33.79,2.14,1.3,2.4,1.5,6,3.77,7.54,3.4.15-.06,1-.67,3.12-7.16a97.39,97.39,0,0,1-10.37-1.91c-9.49-2.24-12.9-5-13-5.13a.54.54,0,0,1-.18-.35.53.53,0,0,1,.13-.36L490,439c-1-.05-1.9-.11-2.62-.18-1.65-.17-3.29-.48-4.73-.75A24.1,24.1,0,0,0,478.76,437.52Z" style="fill:#263238"></path><path d="M585.1,301.08l-3.68,14.47A237.88,237.88,0,0,0,545.71,320c-19,3.9-36.55,9.2-37.11,12.55s21.21,43.24,38.22,73.93c3.69,6.64,11.72,23.44,11.72,23.44s-3.07,8.37-6.14,13.11-7.81,9.21-8.92,9.77-4.47,1.95-3.35,3.34,12.55,0,13.39,0,9.77-7.81,12.28-10,12.27-9.49,12-12.28-8.93-8.92-9.48-10.88S556.59,396.74,556,394.51s-15.34-46-15.34-46,60.54,3.35,73.65,2.24,15.07-6.14,15.9-10.61-5-40.73-5-40.73l-39.06-.28Z" style="fill:#fff"></path><path d="M543.88,457.28c-2.44,0-3.71-.27-4.14-.8a1.38,1.38,0,0,1-.3-1.2c.25-1.12,1.84-2,3.44-2.73l.37-.18c1.08-.54,5.73-4.95,8.73-9.59,2.75-4.24,5.54-11.53,6-12.82-.9-1.88-8.19-17-11.61-23.21-34.91-63-38.57-72.54-38.28-74.26.67-4,20.62-9.49,37.5-13A242.07,242.07,0,0,1,581,315.07L584.62,301a.36.36,0,0,1,0-.11l1.06-2a.5.5,0,0,1,.44-.27h0l39.05.28a.49.49,0,0,1,.49.42c.24,1.49,5.87,36.41,5,40.91-.88,4.72-3,9.86-16.35,11-12.21,1.05-66-1.81-73-2.19,2,5.83,14.59,43.28,15.12,45.38.29,1.16,3.77,9,6.84,15.9,2.77,6.23,5.16,11.61,5.43,12.54.2.7,2.09,2.46,3.75,4,2.74,2.55,5.57,5.18,5.75,7,.23,2.32-4.6,6.48-10,10.9-.91.75-1.67,1.37-2.16,1.8-4.28,3.8-11.6,10.17-12.61,10.17-.15,0-.65,0-1.37.12C548.53,457.11,545.83,457.28,543.88,457.28Zm41.69-156-3.67,14.42a.49.49,0,0,1-.46.37,239.61,239.61,0,0,0-35.63,4.46c-20.48,4.21-36.26,9.43-36.71,12.14-.28,1.68,6.11,15.81,38.16,73.61,3.65,6.57,11.65,23.29,11.73,23.46a.48.48,0,0,1,0,.39c-.12.34-3.12,8.48-6.19,13.21s-7.94,9.35-9.12,9.94l-.39.19c-.82.39-2.73,1.31-2.9,2.05a.38.38,0,0,0,.11.35c.35.42,2.63.75,11.53-.07.87-.08,1.3-.12,1.47-.12.82-.26,7.49-6,11.94-9.91.5-.44,1.27-1.08,2.2-1.83,3.19-2.61,9.83-8.05,9.64-10-.15-1.4-3.08-4.13-5.44-6.32s-3.77-3.54-4-4.47-2.86-6.73-5.38-12.41c-3.24-7.28-6.59-14.81-6.9-16.06-.55-2.19-15.19-45.56-15.34-46a.51.51,0,0,1,.08-.46.48.48,0,0,1,.42-.2c.61,0,60.66,3.34,73.59,2.24,12.7-1.08,14.63-5.83,15.45-10.2.76-4.07-4.31-36.09-5-40.14l-38.33-.28Zm-4.15,14.29h0Z" style="fill:#263238"></path><path d="M540.69,349a.69.69,0,0,1-.2,0l-13.39-5.58a.5.5,0,0,1,.39-.93L540.88,348a.52.52,0,0,1,.27.66A.5.5,0,0,1,540.69,349Z" style="fill:#263238"></path><path d="M577.79,433.84c-.13-1.37-2.29-3.54-4.51-5.63-.9,1.14-1.93,2.41-3,3.68-3.35,3.91-17.58,17.86-17.58,17.86l-4.54-1.24a26.91,26.91,0,0,1-4.66,4.31c-1.12.55-4.47,1.95-3.35,3.34s12.55,0,13.39,0,9.77-7.81,12.28-10S578.07,436.63,577.79,433.84Z" style="fill:#1FBD28"></path><path d="M543.88,457.28c-2.44,0-3.71-.27-4.14-.8a1.38,1.38,0,0,1-.3-1.2c.25-1.12,1.84-2,3.44-2.73l.37-.18a26.63,26.63,0,0,0,4.52-4.2.49.49,0,0,1,.5-.15l4.27,1.17c1.76-1.73,14.26-14,17.34-17.62,1-1.12,2-2.36,3-3.67a.48.48,0,0,1,.35-.19.52.52,0,0,1,.38.13c2.78,2.62,4.53,4.52,4.67,6,.23,2.32-4.6,6.48-10,10.9-.91.75-1.67,1.37-2.16,1.8-4.28,3.8-11.6,10.17-12.61,10.17-.15,0-.65,0-1.37.12C548.53,457.11,545.83,457.28,543.88,457.28Zm4.42-8.21a25.36,25.36,0,0,1-4.6,4.19l-.39.19c-.82.39-2.73,1.31-2.9,2.05a.38.38,0,0,0,.11.35c.35.42,2.63.75,11.53-.07.87-.08,1.3-.12,1.47-.12.82-.26,7.49-6,11.94-9.91.5-.44,1.27-1.08,2.2-1.83,3.19-2.61,9.83-8.05,9.64-10h0c-.13-1.22-2.51-3.56-4-4.94-.92,1.16-1.83,2.26-2.69,3.27-3.32,3.87-17,17.31-17.61,17.88a.5.5,0,0,1-.48.13Z" style="fill:#263238"></path><path d="M586.16,299.09l-1.06,2-3.68,14.47A237.88,237.88,0,0,0,545.71,320c-5.69,1.17-11.25,2.46-16.27,3.8l13,24.75c9.92.53,60.14,3.14,71.94,2.14,13.11-1.12,15.07-6.14,15.9-10.61s-5-40.73-5-40.73Z" style="fill:#1FBD28"></path><path d="M606.16,351.43c-18.53,0-55.41-1.92-63.79-2.36a.49.49,0,0,1-.41-.27l-13-24.75a.47.47,0,0,1,0-.43.5.5,0,0,1,.33-.29c5-1.32,10.6-2.63,16.29-3.8A242.07,242.07,0,0,1,581,315.07L584.62,301a.36.36,0,0,1,0-.11l1.06-2a.5.5,0,0,1,.44-.27h0l39.05.28a.49.49,0,0,1,.49.42c.24,1.49,5.87,36.41,5,40.91-.88,4.72-3,9.86-16.35,11C612.51,351.36,609.66,351.43,606.16,351.43Zm-63.45-3.35c10.58.57,60,3.12,71.59,2.13,12.7-1.08,14.63-5.83,15.45-10.2.76-4.07-4.31-36.09-5-40.14l-38.33-.28-.89,1.67-3.67,14.42a.49.49,0,0,1-.46.37,239.61,239.61,0,0,0-35.63,4.46c-5.44,1.12-10.83,2.37-15.63,3.63Zm38.71-32.53h0Z" style="fill:#263238"></path><path d="M613.5,327.77a.49.49,0,0,1-.32-.12c-8.71-7.35-28.29-10.18-28.48-10.21a.5.5,0,0,1-.43-.56.51.51,0,0,1,.57-.43c.81.12,20,2.9,29,10.44a.49.49,0,0,1,0,.7A.48.48,0,0,1,613.5,327.77Z" style="fill:#263238"></path><path d="M608.2,320.79a.52.52,0,0,1-.29-.09c-3.76-2.68-16.11-4.36-16.23-4.37a.5.5,0,0,1-.43-.57.48.48,0,0,1,.56-.42c.52.06,12.72,1.72,16.68,4.55a.5.5,0,0,1,.12.7A.51.51,0,0,1,608.2,320.79Z" style="fill:#263238"></path><path d="M534.67,274.52s-4.36-.38-6.45,1-12.12,8.15-14.78,10.42a26.6,26.6,0,0,0-5.31,6.82c-.18.57,1.14.76,1.71.57s3-2.08,2.27-1.13.58,1.17.58,1.17,14-8.19,15.16-8a8.15,8.15,0,0,0,4.92-1.7,59.68,59.68,0,0,1,5.5-3.22L583,289.11l6.82-6.25-1.51-15.16-10,8.34Z" style="fill:#fff"></path><path d="M509.29,293.85a2.09,2.09,0,0,1-1.42-.45.79.79,0,0,1-.21-.84,26.14,26.14,0,0,1,5.46-7.05c2.66-2.28,12.71-9.11,14.84-10.46s6.42-1.06,6.74-1l43.39,1.51,9.9-8.22a.52.52,0,0,1,.51-.08.48.48,0,0,1,.3.42l1.52,15.16a.48.48,0,0,1-.16.42l-6.82,6.25a.5.5,0,0,1-.44.12l-44.55-8.68a53.81,53.81,0,0,0-5.28,3.1c-1.61,1.21-4,2-5.31,1.8-.88.05-8.3,4.13-14.82,7.94a.48.48,0,0,1-.33.06,1.56,1.56,0,0,1-1.17-.81.29.29,0,0,1,0-.09l-.09.06a8.55,8.55,0,0,1-1.33.78A2.45,2.45,0,0,1,509.29,293.85Zm-.63-1.1a1.94,1.94,0,0,0,1,.06,8.75,8.75,0,0,0,1.1-.67c1.15-.75,1.49-1,1.84-.59s0,.77-.11.91a.53.53,0,0,0-.13.22.92.92,0,0,0,.24.11c4.28-2.5,13.8-8,15.24-8h.07a7.76,7.76,0,0,0,4.54-1.61A60.6,60.6,0,0,1,538,280a.53.53,0,0,1,.33-.05l44.48,8.67,6.45-5.91-1.4-14-9.32,7.74a.58.58,0,0,1-.34.12L534.65,275h0s-4.22-.35-6.14.87c-2.12,1.35-12.09,8.12-14.72,10.38A26.83,26.83,0,0,0,508.66,292.75Z" style="fill:#263238"></path><path d="M597.35,225.17S589,242.06,584.86,255s-2,15.92-1,16.66,3.18,2.44,3.18,2.44-3.67,25-2,26.94,15.92,2.7,27.43,2.7,14.2-4.66,14.2-7.1-5.14-41.88-9.06-54.62S603.22,221,597.35,225.17Z" style="fill:#fff"></path><path d="M612.53,304.28c-4.23,0-25.42-.14-27.8-2.87-1.74-2,1.09-22.25,1.79-27.05-.59-.46-2.16-1.68-2.94-2.27-1.74-1.3-3-5.34.8-17.2,4.13-12.87,12.43-29.78,12.52-29.95a.46.46,0,0,1,.16-.18,7.15,7.15,0,0,1,6.69-.66c5.87,2,11.79,9.32,14.4,17.82,3.85,12.52,9.08,51.81,9.08,54.76S624.14,304.28,612.53,304.28ZM597.74,225.5C597,227,589.26,243,585.33,255.2c-4.07,12.69-1.91,15.53-1.15,16.09,1,.74,3.19,2.46,3.19,2.46a.52.52,0,0,1,.19.47c-1.79,12.16-3.06,25.42-2.08,26.53,1.28,1.47,12.65,2.53,27,2.53,10.82,0,13.7-4.15,13.7-6.6,0-2.12-5-41.44-9-54.47C614.67,234,609,227,603.43,225.05A6.24,6.24,0,0,0,597.74,225.5Z" style="fill:#263238"></path><path d="M596.87,244.53l-5.23,36.79s-54.13-2.93-55.11-2.93-11.75,4.89-16.16,7.34-7.35,4.17-8.08,5.88l-.74,1.71a17.34,17.34,0,0,0,6.62,0,28.19,28.19,0,0,0,5.63-1.95s6.37-.74,8.57-2.21,7.1-5.63,7.1-5.63,42.61,11.51,47,12.24,14.94,5.15,17.39,2.7c2-2,8.15-37.69,10.14-49.57a10.5,10.5,0,0,0-2.07-8.26c-1.48-1.87-3.5-3.57-5.87-3.89C598.88,235.8,596.87,244.53,596.87,244.53Z" style="fill:#fff"></path><path d="M601.33,299.69c-2.66,0-6.4-1.09-9.84-2.1a51.92,51.92,0,0,0-5.08-1.32c-4.25-.71-42.95-11.15-46.81-12.19-1,.81-5,4.18-7,5.5-2.16,1.44-7.9,2.17-8.71,2.27a28.3,28.3,0,0,1-5.66,2,17.79,17.79,0,0,1-6.83,0,.47.47,0,0,1-.34-.26.51.51,0,0,1,0-.42l.74-1.72c.79-1.84,3.66-3.54,8.3-6.12,3.87-2.14,15.19-7.4,16.4-7.4,1,0,49.07,2.61,54.68,2.91l5.16-36.34s0,0,0,0,2.22-9.17,9.77-8.16c2.74.36,4.88,2.41,6.19,4.07a11,11,0,0,1,2.17,8.65c-3,17.75-8.25,47.82-10.28,49.84A4,4,0,0,1,601.33,299.69ZM539.47,283a.27.27,0,0,1,.13,0c.43.11,42.64,11.51,47,12.23a51.39,51.39,0,0,1,5.19,1.35c4.33,1.27,10.24,3,11.76,1.48,1.29-1.29,5.12-20.18,10-49.29a10,10,0,0,0-2-7.87c-1.19-1.51-3.12-3.38-5.53-3.7-6.58-.87-8.53,6.82-8.66,7.37l-5.23,36.77a.49.49,0,0,1-.52.43c-18.71-1-54.31-2.93-55.08-2.93-1,.07-11.43,4.79-15.92,7.28-4.32,2.4-7.2,4.09-7.86,5.64l-.49,1.13a16.44,16.44,0,0,0,5.79-.1,28.12,28.12,0,0,0,5.53-1.92.43.43,0,0,1,.16-.05c.06,0,6.28-.74,8.35-2.12s7-5.56,7.06-5.6A.49.49,0,0,1,539.47,283Z" style="fill:#263238"></path><path d="M518.17,293.82a.49.49,0,0,1-.5-.47,3,3,0,0,1,1.21-2.61c1-.6,6.3-3,6.81-3.18a.51.51,0,0,1,.63.32.5.5,0,0,1-.32.63c-.38.13-5.57,2.49-6.63,3.1-.76.43-.7,1.68-.7,1.69a.5.5,0,0,1-.48.52Z" style="fill:#263238"></path><path d="M515.24,294.21a.39.39,0,0,1-.15,0,.49.49,0,0,1-.32-.63c.18-.59.84-2.58,1.52-3.08s6.27-3.7,6.92-4.07a.5.5,0,0,1,.49.87c-2.51,1.43-6.39,3.68-6.81,4a8.43,8.43,0,0,0-1.17,2.58A.49.49,0,0,1,515.24,294.21Z" style="fill:#263238"></path><path d="M566.9,176.88s-18.66,10.26-18.35,16.17,25.51,9.64,27.68,9.64,2.49-5.59,5.29-4,3.42,5.29,3.11,6.84a33.74,33.74,0,0,1-.93,3.42s6.22,18,12.44,21.15,14.47,5.69,20.06-1.47,4.17-15.67.77-19.36c-4.7-5.13-15.55-5-18.35-11.51s-1.86-16.49-8.08-22.71S566.9,176.88,566.9,176.88Z" style="fill:#263238"></path><path d="M607,233.68c-3.19,0-6.88-1.06-11.1-3.17-6.33-3.16-12.43-20.69-12.69-21.43a.58.58,0,0,1,0-.32,32.61,32.61,0,0,0,.92-3.36c.25-1.25-.22-4.84-2.86-6.31-1-.58-1.55.08-2.47,1.72-.66,1.17-1.34,2.38-2.58,2.38-1.42,0-27.83-3.52-28.18-10.11-.32-6.15,17.84-16.21,18.61-16.64h0c.73-.34,17.81-8.16,24.2-1.77,4.11,4.11,5.15,9.63,6.16,15a38.64,38.64,0,0,0,2,7.89c1.49,3.47,5.4,5,9.54,6.53,3.23,1.23,6.58,2.5,8.72,4.84,3.25,3.53,5.26,12.34-.74,20A11.61,11.61,0,0,1,607,233.68Zm-22.79-24.77c.63,1.77,6.47,17.87,12.14,20.71,9,4.51,15.21,4.09,19.45-1.33,5.65-7.22,3.81-15.44.8-18.73-2-2.16-5.22-3.39-8.35-4.57-4.15-1.58-8.44-3.21-10.1-7.07a40.17,40.17,0,0,1-2.1-8.11c-1-5.19-2-10.56-5.88-14.44-5.82-5.83-22.46,1.69-23,2-5.13,2.82-18.32,11.11-18.08,15.7.28,5.21,24.08,9.16,27.18,9.16.66,0,1.19-.95,1.71-1.87.76-1.36,1.8-3.23,3.82-2.11,3,1.69,3.7,5.71,3.36,7.38A32.38,32.38,0,0,1,584.22,208.91Z" style="fill:#263238"></path><path d="M469.5,296.73H447.22a3.89,3.89,0,0,1-3.41-5.78l24.48-44.37a1.39,1.39,0,0,1,2.43,1.35l-24.48,44.36a1.12,1.12,0,0,0,1,1.66H469.5a1.39,1.39,0,0,1,0,2.78Z" style="fill:#263238"></path><rect x="469.5" y="205.8" width="4.97" height="82.24" transform="translate(-38.34 94.25) rotate(-10.96)" style="fill:#fff"></rect><path d="M477.37,288.27a.49.49,0,0,1-.49-.41l-15.64-80.74a.47.47,0,0,1,.08-.38.49.49,0,0,1,.31-.21l4.89-.94a.5.5,0,0,1,.58.39l15.64,80.75a.48.48,0,0,1-.07.37.49.49,0,0,1-.32.21l-4.89.95Zm-15.05-80.85,15.44,79.76,3.91-.75-15.45-79.77Z" style="fill:#263238"></path><polygon points="538.74 294.89 498.72 293.75 498.72 296.41 538.74 296.41 538.74 294.89" style="fill:#fff"></polygon><path d="M538.74,296.91h-40a.5.5,0,0,1-.5-.5v-2.66a.48.48,0,0,1,.15-.36.5.5,0,0,1,.36-.14l40,1.14a.5.5,0,0,1,.49.5v1.52A.5.5,0,0,1,538.74,296.91Zm-39.52-1h39v-.54l-39-1.11Z" style="fill:#263238"></path><polygon points="423.61 457.54 417.09 457.54 415.69 305.86 425 305.86 423.61 457.54" style="fill:#fff"></polygon><path d="M423.6,458h-6.51a.5.5,0,0,1-.5-.5l-1.4-151.67a.54.54,0,0,1,.14-.36.55.55,0,0,1,.36-.15H425a.55.55,0,0,1,.36.15.54.54,0,0,1,.14.36l-1.4,151.67A.5.5,0,0,1,423.6,458Zm-6-1h5.53l1.39-150.68h-8.31Z" style="fill:#263238"></path><polygon points="543.04 457.54 536.52 457.54 535.13 305.86 544.44 305.86 543.04 457.54" style="fill:#fff"></polygon><path d="M543,458h-6.52a.5.5,0,0,1-.5-.5l-1.39-151.67a.5.5,0,0,1,.14-.36.51.51,0,0,1,.36-.15h9.31a.51.51,0,0,1,.5.51l-1.4,151.67A.5.5,0,0,1,543,458Zm-6-1h5.53l1.38-150.68h-8.3Z" style="fill:#263238"></path><rect x="406.47" y="296.65" width="148.29" height="10" style="fill:#263238"></rect><path d="M554.77,307.15H406.47a.5.5,0,0,1-.5-.5v-10a.5.5,0,0,1,.5-.5h148.3a.5.5,0,0,1,.5.5v10A.5.5,0,0,1,554.77,307.15Zm-147.8-1h147.3v-9H407Z" style="fill:#263238"></path></g></svg>